<svg width="36" height="36" viewBox="0 0 36 36" fill="none" xmlns="http://www.w3.org/2000/svg">
<mask id="mask0_197_674" style="mask-type:luminance" maskUnits="userSpaceOnUse" x="0" y="0" width="36" height="36">
<rect width="36" height="36" fill="white"/>
<circle cx="9" cy="9" r="2" fill="black"/>
</mask>
<g mask="url(#mask0_197_674)">
<path d="M15.5001 1C7.5 1.99992 -0.499892 13.5 1.00012 15.5C2.50012 17.5 15.0001 16.5 15.0001 16.5C23 10 17.5 1 15.5001 1Z" fill="white"/>
<path d="M27.9999 13.5C28.4284 13.3502 28.8474 13.4331 28.9996 13.9987C32.4999 27 20.9999 29.5 16.4999 28C11.9999 26.5 10.4999 22.5 9.9999 23C9.40236 23.3214 8.46467 25.1507 8.9999 26C9.96764 27.5355 11.8325 28.961 11.4999 30C11.3435 30.2796 11.2443 30.3722 10.9999 30.5C8.75899 30.2755 8.09382 27.6002 5.4999 27.5C5.22397 27.4893 4.19514 27.8047 3.9999 28C2.49914 29.5012 18 42.5 31 29.5C38.0179 22.4822 35.0005 1.5 17.5 1C22.5 5.5 20.9999 13 16.4996 16.5C21.56 17.2721 24.0244 17.6592 27.4999 22.5C28.3989 19.5557 28.6259 17.4989 27.5714 14.2221C27.4999 14 27.5714 13.6498 27.9999 13.5Z" fill="white"/>
<path d="M17.5 18C19.8082 19.6039 20.8533 20.5724 22 22.5L22.5 19.5C21.0562 18.6462 19.9403 18.3323 17.5 18Z" fill="white" stroke="white" stroke-linejoin="round"/>
<path d="M22.5 0.5C26.6673 1.84477 29.2199 3.11729 32 6.9999L35 5C31.7796 1.01772 27 0.5 22.5 0.5Z" fill="white" stroke="white" stroke-linejoin="round"/>
</g>
</svg>
